<svg width="499" height="561" viewBox="0 0 499 561" fill="none" xmlns="http://www.w3.org/2000/svg">
<g clip-path="url(#clip0)">
<path d="M409.011 555.05C405.127 555.05 401.203 555.004 397.352 554.913L397.439 552.805C402.969 552.934 408.613 552.971 414.169 552.913L414.207 555.023C412.478 555.041 410.746 555.05 409.011 555.05ZM431.054 554.561L430.89 552.454C436.428 552.208 442.037 551.862 447.562 551.426L447.855 553.524C442.288 553.964 436.636 554.313 431.054 554.561V554.561ZM380.52 554.232C374.936 553.909 369.292 553.487 363.745 552.974L364.087 550.88C369.591 551.388 375.191 551.808 380.734 552.128L380.52 554.232ZM464.574 551.911L464.154 549.825C469.657 549.196 475.202 548.465 480.631 547.652L481.177 549.721C475.705 550.541 470.119 551.277 464.574 551.911ZM347.066 551.139C341.549 550.434 335.98 549.624 330.514 548.73L331.108 546.667C336.532 547.555 342.059 548.359 347.534 549.058L347.066 551.139ZM497.632 546.959L496.959 544.91C502.361 543.903 507.793 542.79 513.104 541.603L513.9 543.627C508.547 544.823 503.075 545.945 497.632 546.959ZM314.128 545.749C308.716 544.664 303.27 543.47 297.941 542.2L298.784 540.188C304.073 541.449 309.478 542.633 314.847 543.708L314.128 545.749ZM529.946 539.733L529.027 537.74C534.269 536.366 539.541 534.881 544.699 533.325L545.738 535.285C540.542 536.853 535.229 538.349 529.946 539.733L529.946 539.733ZM281.946 538.08C276.69 536.624 271.401 535.052 266.228 533.41L267.315 531.464C272.448 533.094 277.696 534.653 282.913 536.099L281.946 538.08ZM561.207 530.305L560.047 528.384C565.081 526.66 570.141 524.819 575.086 522.914L576.36 524.794C571.377 526.713 566.279 528.567 561.207 530.305ZM250.816 528.201C245.764 526.386 240.693 524.456 235.745 522.463L237.064 520.602C241.975 522.579 247.007 524.495 252.021 526.296L250.816 528.201ZM591.164 518.762L589.778 516.93C594.605 514.854 599.424 512.671 604.099 510.442L605.594 512.225C600.885 514.471 596.03 516.671 591.164 518.762ZM221.043 516.211C216.237 514.056 211.425 511.784 206.74 509.458L208.281 507.696C212.93 510.004 217.705 512.259 222.474 514.397L221.043 516.211ZM619.616 505.195L618.014 503.466C622.56 501.072 627.096 498.565 631.497 496.015L633.203 497.689C628.769 500.258 624.198 502.783 619.616 505.195ZM192.866 502.223C188.347 499.749 183.833 497.157 179.448 494.518L181.195 492.869C185.547 495.487 190.027 498.06 194.511 500.514L192.866 502.223ZM646.324 489.723L644.519 488.109C648.756 485.414 652.972 482.606 657.053 479.762L658.954 481.312C654.843 484.178 650.593 487.007 646.324 489.723ZM166.512 486.361C162.303 483.583 158.121 480.694 154.084 477.772L156.023 476.249C160.03 479.149 164.179 482.017 168.356 484.774L166.512 486.361ZM671.065 472.473L669.072 470.991C672.978 468.008 676.842 464.921 680.553 461.816L682.634 463.228C678.894 466.357 675.001 469.467 671.065 472.473V472.473ZM142.191 468.768C138.329 465.707 134.516 462.543 130.856 459.365L132.971 457.982C136.603 461.137 140.387 464.276 144.22 467.313L142.191 468.768ZM693.633 453.594L691.47 452.254C694.999 449.017 698.473 445.677 701.799 442.325L704.041 443.589C700.69 446.966 697.189 450.333 693.633 453.594ZM120.102 449.587C116.634 446.284 113.22 442.874 109.953 439.452L112.225 438.22C115.468 441.615 118.856 444.999 122.298 448.278L120.102 449.587ZM713.833 433.234L711.517 432.049C714.64 428.583 717.698 425.017 720.606 421.446L722.993 422.551C720.061 426.148 716.979 429.743 713.833 433.234ZM100.431 428.982C97.3799 425.457 94.394 421.83 91.5551 418.198L93.9668 417.126C96.7845 420.73 99.7479 424.331 102.776 427.828L100.431 428.982ZM731.494 411.56L729.044 410.54C731.732 406.873 734.343 403.108 736.808 399.347L739.318 400.283C736.836 404.071 734.203 407.865 731.494 411.56ZM83.3446 407.122C80.7333 403.402 78.2014 399.585 75.8191 395.779L78.3511 394.878C80.7156 398.656 83.2278 402.444 85.8193 406.135L83.3446 407.122ZM746.447 388.744L743.882 387.897C746.113 384.057 748.256 380.123 750.25 376.207L752.864 376.964C750.855 380.911 748.695 384.874 746.447 388.744V388.744ZM68.9934 384.191C66.8469 380.308 64.7914 376.335 62.8842 372.382L65.516 371.661C67.4081 375.584 69.448 379.526 71.5773 383.379L68.9934 384.191ZM758.554 364.969L755.897 364.305C757.644 360.337 759.293 356.281 760.797 352.248L763.493 352.819C761.977 356.883 760.314 360.971 758.555 364.969L758.554 364.969ZM57.4907 360.344C55.8248 356.322 54.2594 352.213 52.8382 348.13L55.5465 347.595C56.9568 351.647 58.5105 355.724 60.1634 359.715L57.4907 360.344ZM767.68 340.511L764.953 340.033C766.206 335.965 767.352 331.812 768.36 327.689L771.113 328.07C770.099 332.226 768.944 336.411 767.68 340.511L767.68 340.511ZM48.9389 335.769C47.7714 331.647 46.7146 327.447 45.7985 323.285L48.5602 322.939C49.47 327.07 50.5187 331.238 51.6774 335.328L48.9389 335.769ZM773.782 315.526L771.006 315.239C771.76 311.106 772.396 306.891 772.897 302.711L775.686 302.901C775.181 307.114 774.539 311.36 773.782 315.526L773.782 315.526ZM43.421 310.707C42.7607 306.529 42.2186 302.274 41.8092 298.061L44.6023 297.906C45.0076 302.089 45.5463 306.311 46.2019 310.458L43.421 310.707ZM776.826 290.226L774.029 290.131C774.278 285.949 774.405 281.708 774.405 277.525H777.205C777.205 281.74 777.078 286.013 776.827 290.226L776.826 290.226ZM40.9609 285.37C40.8652 282.783 40.8167 280.142 40.816 277.525C40.816 275.901 40.8344 274.28 40.8714 272.662L43.6713 272.699C43.6344 274.305 43.6159 275.913 43.6159 277.525C43.6166 280.123 43.6652 282.743 43.7595 285.312L40.9609 285.37ZM774.385 274.581C774.327 270.397 774.141 266.156 773.834 261.975L776.628 261.857C776.939 266.07 777.126 270.343 777.185 274.558L774.385 274.581ZM44.3359 260.1L41.5415 259.968C41.8908 255.751 42.3734 251.492 42.9742 247.309L45.7578 247.536C45.161 251.688 44.6832 255.915 44.3359 260.1ZM772.524 249.405C771.965 245.245 771.269 241.035 770.457 236.893L773.227 236.584C774.044 240.758 774.746 245 775.311 249.192L772.524 249.405ZM47.9377 235.035L45.1706 234.713C46.0284 230.538 47.0251 226.329 48.1332 222.204L50.8771 222.622C49.7779 226.716 48.7888 230.893 47.9377 235.035ZM767.631 224.466C766.563 220.35 765.359 216.205 764.049 212.149L766.77 211.651C768.089 215.738 769.303 219.914 770.379 224.061L767.631 224.466ZM54.5699 210.325L51.854 209.812C53.2136 205.724 54.7196 201.603 56.3301 197.561L59.0111 198.168C57.4136 202.179 55.9192 206.269 54.5699 210.325ZM759.718 199.969C758.157 195.951 756.451 191.909 754.647 187.954L757.294 187.267C759.113 191.253 760.832 195.327 762.406 199.376L759.718 199.969ZM64.2086 186.146L61.5672 185.446C63.4279 181.457 65.4369 177.448 67.5383 173.531L70.1346 174.323C68.0488 178.209 66.0548 182.187 64.2084 186.146H64.2086ZM748.845 176.127C746.802 172.243 744.615 168.345 742.343 164.541L744.897 163.674C747.187 167.508 749.391 171.435 751.448 175.349L748.845 176.127ZM76.7754 162.723L74.2311 161.842C76.5696 158.003 79.0585 154.154 81.6288 150.4L84.1171 151.368C81.5659 155.093 79.0962 158.913 76.7754 162.723ZM735.142 153.188C732.636 149.462 729.981 145.729 727.25 142.093L729.687 141.053C732.439 144.717 735.113 148.479 737.638 152.234L735.142 153.188ZM92.143 140.283L89.7163 139.23C92.5094 135.574 95.4549 131.915 98.4716 128.355L100.831 129.49C97.838 133.024 94.9143 136.655 92.1431 140.283H92.143ZM718.692 131.277C715.733 127.726 712.635 124.19 709.484 120.764L711.784 119.562C714.96 123.013 718.082 126.577 721.062 130.154L718.692 131.277ZM110.165 119.011L107.876 117.795C111.104 114.344 114.479 110.905 117.909 107.572L120.121 108.866C116.718 112.174 113.368 115.587 110.165 119.011ZM699.646 110.577C696.272 107.246 692.758 103.935 689.199 100.735L691.346 99.3795C694.931 102.604 698.472 105.94 701.872 109.296L699.646 110.577ZM130.679 99.0765L128.548 97.7081C132.17 94.5011 135.946 91.3092 139.769 88.2208L141.816 89.6604C138.022 92.7256 134.275 95.8939 130.679 99.0765ZM678.169 91.2592C674.408 88.1734 670.506 85.1149 666.574 82.1697L668.548 80.6724C672.51 83.6407 676.441 86.7219 680.231 89.8309L678.169 91.2592ZM153.506 80.6394L151.548 79.1308C155.552 76.1784 159.695 73.2595 163.861 70.4556L165.726 72.0302C161.591 74.8125 157.479 77.7092 153.506 80.6394H153.506ZM654.443 73.4852C650.321 70.6673 646.065 67.8881 641.794 65.2248L643.58 63.5986C647.882 66.2821 652.171 69.0824 656.324 71.922L654.443 73.4852ZM178.451 63.849L176.683 62.2126C181.014 59.5544 185.489 56.9328 189.986 54.4205L191.654 56.1157C187.191 58.6095 182.749 61.2109 178.451 63.849ZM628.659 57.4048C624.211 54.8806 619.635 52.4038 615.058 50.0435L616.638 48.3019C621.251 50.6798 625.861 53.1751 630.343 55.7189L628.659 57.4048ZM205.306 48.8465L203.743 47.0957C208.378 44.7452 213.149 42.4436 217.925 40.2533L219.38 42.0566C214.641 44.2299 209.905 46.5145 205.306 48.8465ZM601.023 43.1577C596.291 40.9504 591.432 38.7988 586.581 36.7615L587.943 34.9179C592.832 36.9706 597.728 39.1393 602.497 41.3626L601.023 43.1577ZM233.848 35.7603L232.504 33.9085C237.407 31.8862 242.435 29.9241 247.447 28.0759L248.678 29.972C243.704 31.8058 238.714 33.7529 233.848 35.7603L233.848 35.7603ZM571.761 30.8706C566.779 28.9997 561.676 27.1922 556.592 25.4986L557.724 23.5685C562.847 25.275 567.991 27.0964 573.011 28.9817L571.761 30.8706ZM263.838 24.7036L262.725 22.7673C267.85 21.0933 273.091 19.4877 278.304 17.9951L279.298 19.9684C274.125 21.4493 268.923 23.0424 263.838 24.7036L263.838 24.7036ZM541.107 20.6574C535.922 19.142 530.616 17.6962 525.335 16.3607L526.226 14.3595C531.547 15.7058 536.894 17.1624 542.118 18.6902L541.107 20.6574ZM295.07 15.7646L294.197 13.7592C299.518 12.4443 304.947 11.2062 310.333 10.0803L311.081 12.1135C305.737 13.231 300.35 14.4594 295.07 15.7645L295.07 15.7646ZM509.355 12.6267C504.015 11.4792 498.568 10.4106 493.167 9.4507L493.809 7.39691C499.253 8.36404 504.741 9.44091 510.124 10.5966L509.355 12.6267ZM327.3 9.02252L326.677 6.96514C332.132 6.02582 337.688 5.17002 343.192 4.42188L343.69 6.49832C338.227 7.24129 332.713 8.09041 327.3 9.02249V9.02252ZM476.8 6.84148C471.348 6.07016 465.795 5.38387 460.293 4.80161L460.682 2.71178C466.225 3.29864 471.823 3.9901 477.317 4.76709L476.8 6.84148ZM360.217 4.54503L359.846 2.45311C365.389 1.89561 371.025 1.42674 376.599 1.06093L376.843 3.16315C371.311 3.52687 365.718 3.99163 360.217 4.545L360.217 4.54503ZM443.678 3.33419C438.163 2.9426 432.549 2.64066 426.992 2.43816L427.128 0.329798C432.727 0.53431 438.383 0.83837 443.941 1.23301L443.678 3.33419ZM393.539 2.35367L393.421 0.245298C398.567 0.0834995 403.812 0.00106246 409.011 3.05176e-05L410.278 0.00153356L410.27 2.112L409.011 2.11044C403.851 2.11148 398.645 2.1934 393.539 2.35364V2.35367Z" fill="#E6E6E6"/>
<path d="M409.891 553.609V438.206C409.894 436.589 410.747 435.039 412.263 433.896C413.78 432.753 415.836 432.11 417.981 432.108H436.351C438.496 432.11 440.553 432.753 442.069 433.896C443.586 435.039 444.439 436.589 444.441 438.206V553.609C444.439 555.226 443.586 556.776 442.069 557.919C440.553 559.062 438.496 559.705 436.351 559.707H417.981C415.836 559.705 413.78 559.062 412.263 557.919C410.747 556.776 409.894 555.226 409.891 553.609Z" fill="#2F2E41"/>
<path d="M373.558 553.609V438.206C373.56 436.589 374.413 435.039 375.93 433.896C377.447 432.753 379.503 432.11 381.648 432.108H400.018C402.163 432.11 404.219 432.753 405.736 433.896C407.252 435.039 408.106 436.589 408.108 438.206V553.609C408.106 555.226 407.252 556.776 405.736 557.919C404.219 559.062 402.163 559.705 400.018 559.707H381.648C379.503 559.705 377.447 559.062 375.93 557.919C374.413 556.776 373.56 555.226 373.558 553.609Z" fill="#2F2E41"/>
<path d="M446.189 400.106H371.811C367.686 400.106 364.343 402.626 364.343 405.735V469.064C364.343 472.172 367.686 474.692 371.811 474.692H446.189C450.313 474.692 453.656 472.172 453.656 469.064V405.735C453.656 402.626 450.313 400.106 446.189 400.106Z" fill="#2F2E41"/>
<path d="M283.959 218.795C283.959 218.795 246.423 231.939 214.659 240.655C194.947 207.116 166.55 208.371 166.55 208.371L149.334 217.307L152.439 230.708L151.592 252.62L147.076 264.107L153.556 264.99L157.217 265.49L157.769 265.114C156.855 267.842 156.486 270.657 156.672 273.467L319.52 254.322C319.52 254.322 313.875 234.538 283.959 218.795Z" fill="#E6E6E6"/>
<path d="M235.871 391.298L246.79 402.433C249.241 404.933 253.917 405.462 257.234 403.615L380.362 335.025C383.679 333.177 384.381 329.653 381.929 327.153L371.011 316.017C368.56 313.517 363.884 312.988 360.567 314.836L237.439 383.426C234.122 385.274 233.42 388.798 235.871 391.298Z" fill="#6C63FF"/>
<path d="M445.678 312.235L429.451 318.725C425.808 320.183 424.422 323.59 426.355 326.336L498.126 428.274C500.059 431.02 504.58 432.065 508.223 430.607L524.45 424.117C528.093 422.659 529.479 419.252 527.545 416.506L455.775 314.568C453.841 311.822 449.321 310.777 445.678 312.235Z" fill="#6C63FF"/>
<path d="M491.167 357.476L464.666 370.718C460.616 372.338 455.766 371.425 453.832 368.679L424.565 327.11C422.631 324.364 424.347 320.824 428.397 319.204L446.435 311.989C450.485 310.369 455.335 311.282 457.268 314.028L494.999 349.571C496.933 352.317 495.217 355.856 491.167 357.476Z" fill="#CCCCCC"/>
<path d="M310.572 345.299L327.797 362.54C329.153 363.629 331.026 364.267 333.006 364.314C334.986 364.361 336.909 363.814 338.353 362.792L383.877 330.585C385.321 329.564 386.167 328.151 386.23 326.659C386.293 325.167 385.566 323.718 384.211 322.629L371.639 312.533C370.284 311.445 368.41 310.807 366.43 310.76C364.451 310.712 362.527 311.26 361.083 312.281L310.907 337.342C309.463 338.364 308.616 339.776 308.553 341.268C308.491 342.76 309.217 344.21 310.572 345.299Z" fill="#CCCCCC"/>
<path d="M450.733 310.576H367.266C363.142 310.576 359.798 313.096 359.798 316.205V449.865C359.798 452.974 363.142 455.494 367.266 455.494H450.733C454.857 455.494 458.201 452.974 458.201 449.865V316.205C458.201 313.096 454.857 310.576 450.733 310.576Z" fill="#CCCCCC"/>
<path d="M408.512 301.853C445.3 301.853 475.123 279.374 475.123 251.645C475.123 223.916 445.3 201.438 408.512 201.438C371.724 201.438 341.901 223.916 341.901 251.645C341.901 279.374 371.724 301.853 408.512 301.853Z" fill="#6C63FF"/>
<path d="M416.276 268.409C412.16 268.322 407.038 268.214 403.096 266.042C401.922 265.369 400.956 264.51 400.268 263.526C399.58 262.542 399.186 261.456 399.113 260.345C399.042 259.555 399.214 258.764 399.616 258.033C400.017 257.302 400.638 256.651 401.429 256.131C403.488 254.819 406.497 254.509 409.74 255.229L406.381 236.723L408.848 236.469L412.796 258.224L410.737 257.512C408.351 256.686 405.073 256.266 403.036 257.564C402.536 257.903 402.146 258.324 401.897 258.795C401.649 259.266 401.547 259.774 401.601 260.279C401.662 261.106 401.957 261.913 402.469 262.647C402.98 263.38 403.695 264.021 404.565 264.527C407.631 266.216 411.715 266.435 416.346 266.533L416.276 268.409Z" fill="#2F2E41"/>
<path d="M394.185 238.319H380.778V240.195H394.185V238.319Z" fill="#2F2E41"/>
<path d="M436.502 238.319H423.096V240.195H436.502V238.319Z" fill="#2F2E41"/>
<path d="M364.507 212.41C353.711 211.482 345.35 203.685 344.432 195.774C343.339 186.363 350.611 177.424 360.587 172.143C371.019 166.62 384.017 164.314 396.594 163.806C421.127 162.886 445.237 168.876 464.236 180.611C473.66 186.511 482.461 194.025 485.797 203.102C488.693 210.985 486.336 219.916 477.925 225.436C475.844 226.789 473.414 227.803 470.787 228.412C468.161 229.022 465.396 229.214 462.666 228.978C456.139 228.467 450.117 225.88 444.904 223.023C434.765 217.467 426.441 209.725 414.087 206.821C405.029 204.692 393.274 206.566 387.739 212.74C386.483 214.154 385.669 215.764 385.359 217.449C385.244 217.808 385.315 218.187 385.557 218.508C385.8 218.829 386.195 219.069 386.663 219.18C387.14 219.277 387.649 219.228 388.079 219.044C388.509 218.86 388.825 218.555 388.959 218.197C390.412 210.42 403.098 207.519 412 209.294C424.98 211.884 433.693 220.614 444.342 226.161C449.941 229.077 456.309 231.409 463.176 231.827C469.096 232.177 474.971 230.817 479.609 228.022C488.707 222.607 492.186 213.294 490.174 204.909C487.845 195.199 479.174 186.877 469.661 180.434C450.374 167.51 425.335 160.538 399.534 160.907C386.374 161.135 372.642 163.183 361.305 168.426C350.308 173.511 341.808 182.019 340.697 191.909C339.719 200.613 345.915 209.718 356.552 213.532C359.059 214.427 361.749 214.999 364.507 215.225C366.891 215.429 366.871 212.613 364.507 212.41H364.507Z" fill="#2F2E41"/>
<path d="M157.096 263.788L164.998 261.873C165.845 260.65 164.295 261.435 165.035 260.246C185.028 228.096 166.55 208.371 166.55 208.371L152.256 215.79C152.221 215.729 152.192 215.666 152.156 215.604C152.157 215.604 149.616 211.35 145.665 214.541C145.665 214.541 158.083 237.303 144.254 265.596L160.341 271.127L166.55 265.596L166.691 265.064L155.579 264.303L157.096 263.788Z" fill="#CCCCCC"/>
<path d="M382.458 383.237C318.955 372.6 259.828 394.618 259.828 394.618L259.667 394.509L236.12 378.663L144.113 265.49L166.55 265.596C228.924 237.516 316.697 241.345 316.697 241.345C354.517 273.68 382.458 383.237 382.458 383.237Z" fill="#3F3D56"/>
<path opacity="0.1" d="M259.667 394.509L236.12 378.663L144.113 265.49L166.55 265.596C166.55 265.596 255.978 354.622 259.667 394.509Z" fill="black"/>
<path d="M270.001 306.206C289.225 301.761 301.77 290.692 298.022 281.481C294.274 272.271 275.652 268.407 256.428 272.851C237.205 277.296 224.659 288.365 228.407 297.576C232.155 306.786 250.778 310.65 270.001 306.206Z" fill="#6C63FF"/>
<path d="M73.447 210.617C68.3766 224.744 51.0095 233.494 51.0095 233.494C51.0095 233.494 41.8631 219.338 46.9334 205.211C52.0037 191.083 69.3709 182.334 69.3709 182.334C69.3709 182.334 78.5173 196.489 73.447 210.617Z" fill="#CCCCCC"/>
<path d="M27.3209 210.617C32.3912 224.744 49.7583 233.494 49.7583 233.494C49.7583 233.494 58.9048 219.338 53.8345 205.211C48.7641 191.083 31.397 182.334 31.397 182.334C31.397 182.334 22.2505 196.489 27.3209 210.617Z" fill="#CCCCCC"/>
<path d="M34.7714 207.581C48.6845 217.789 50.3839 233.482 50.3839 233.482C50.3839 233.482 29.5257 232.624 15.6125 222.415C1.69938 212.207 0 196.514 0 196.514C0 196.514 20.8583 197.372 34.7714 207.581Z" fill="#3F3D56"/>
<path d="M65.9965 207.581C52.0833 217.789 50.3839 233.482 50.3839 233.482C50.3839 233.482 71.2422 232.624 85.1553 222.415C99.0684 212.207 100.768 196.514 100.768 196.514C100.768 196.514 79.9096 197.372 65.9965 207.581Z" fill="#3F3D56"/>
<path d="M555.055 559.124H266.302V561H555.055V559.124Z" fill="#3F3D56"/>
</g>
<defs>
<clipPath id="clip0">
<rect width="799" height="561" fill="white"/>
</clipPath>
</defs>
</svg>
