<svg width="50" height="50" viewBox="0 0 50 50" fill="none" xmlns="http://www.w3.org/2000/svg">
<g id="cancel_24px">
<path id="icon/navigation/cancel_24px" fill-rule="evenodd" clip-rule="evenodd" d="M25 4.16663C13.4792 4.16663 4.16666 13.4791 4.16666 25C4.16666 36.5208 13.4792 45.8333 25 45.8333C36.5208 45.8333 45.8333 36.5208 45.8333 25C45.8333 13.4791 36.5208 4.16663 25 4.16663ZM25 41.6666C15.8125 41.6666 8.33332 34.1875 8.33332 25C8.33332 15.8125 15.8125 8.33329 25 8.33329C34.1875 8.33329 41.6667 15.8125 41.6667 25C41.6667 34.1875 34.1875 41.6666 25 41.6666ZM25 22.0625L32.4792 14.5833L35.4167 17.5208L27.9375 25L35.4167 32.4791L32.4792 35.4166L25 27.9375L17.5208 35.4166L14.5833 32.4791L22.0625 25L14.5833 17.5208L17.5208 14.5833L25 22.0625Z" fill="#5F6368"/>
</g>
</svg>
