<svg width="258" height="80" viewBox="0 0 258 80" fill="none" xmlns="http://www.w3.org/2000/svg">
<path fill-rule="evenodd" clip-rule="evenodd" d="M9.48372 53.2338C9.48372 56.8937 13.3461 59.8881 18.1199 59.8881H0.760773V66.5423H104.915V59.8881H87.5562C92.33 59.8881 96.2358 56.8937 96.2358 53.2338V19.9627C96.2358 16.3029 92.33 13.3085 87.5562 13.3085H18.1199C13.3461 13.3085 9.44032 16.3029 9.44032 19.9627L9.48372 53.2338ZM18.1199 19.9627H87.5562V53.2338H18.1199V19.9627Z" fill="black" fill-opacity="0.54"/>
<path d="M59.8841 54.288C58.0121 54.288 56.3681 53.928 54.9521 53.208C53.5361 52.464 52.4441 51.432 51.6761 50.112C50.9081 48.792 50.5241 47.268 50.5241 45.54V37.224C50.5241 35.496 50.9081 33.972 51.6761 32.652C52.4441 31.332 53.5361 30.312 54.9521 29.592C56.3681 28.872 58.0121 28.512 59.8841 28.512C61.7321 28.512 63.3521 28.86 64.7441 29.556C66.1601 30.228 67.2521 31.2 68.0201 32.472C68.8121 33.72 69.2081 35.172 69.2081 36.828C69.2081 37.044 69.0641 37.176 68.7761 37.224L64.5641 37.476H64.4921C64.2521 37.476 64.1321 37.344 64.1321 37.08C64.1321 35.808 63.7361 34.788 62.9441 34.02C62.1761 33.252 61.1561 32.868 59.8841 32.868C58.5881 32.868 57.5441 33.252 56.7521 34.02C55.9841 34.788 55.6001 35.808 55.6001 37.08V45.756C55.6001 47.004 55.9841 48.012 56.7521 48.78C57.5441 49.548 58.5881 49.932 59.8841 49.932C61.1561 49.932 62.1761 49.548 62.9441 48.78C63.7361 48.012 64.1321 47.004 64.1321 45.756C64.1321 45.492 64.2761 45.36 64.5641 45.36L68.7761 45.54C68.8961 45.54 68.9921 45.576 69.0641 45.648C69.1601 45.72 69.2081 45.804 69.2081 45.9C69.2081 47.556 68.8121 49.02 68.0201 50.292C67.2521 51.564 66.1601 52.548 64.7441 53.244C63.3521 53.94 61.7321 54.288 59.8841 54.288ZM80.7433 54.288C78.7273 54.288 76.9993 53.76 75.5593 52.704C74.1193 51.648 73.1353 50.208 72.6073 48.384C72.2713 47.256 72.1033 46.032 72.1033 44.712C72.1033 43.296 72.2713 42.024 72.6073 40.896C73.1593 39.12 74.1553 37.728 75.5953 36.72C77.0353 35.712 78.7633 35.208 80.7793 35.208C82.7473 35.208 84.4273 35.712 85.8193 36.72C87.2113 37.704 88.1953 39.084 88.7713 40.86C89.1553 42.06 89.3473 43.32 89.3473 44.64C89.3473 45.936 89.1793 47.148 88.8433 48.276C88.3153 50.148 87.3313 51.624 85.8913 52.704C84.4753 53.76 82.7593 54.288 80.7433 54.288ZM80.7433 49.932C81.5353 49.932 82.2073 49.692 82.7593 49.212C83.3113 48.732 83.7073 48.072 83.9473 47.232C84.1393 46.464 84.2353 45.624 84.2353 44.712C84.2353 43.704 84.1393 42.852 83.9473 42.156C83.6833 41.34 83.2753 40.704 82.7233 40.248C82.1713 39.792 81.4993 39.564 80.7073 39.564C79.8913 39.564 79.2073 39.792 78.6553 40.248C78.1273 40.704 77.7433 41.34 77.5033 42.156C77.3113 42.732 77.2153 43.584 77.2153 44.712C77.2153 45.792 77.2993 46.632 77.4673 47.232C77.7073 48.072 78.1033 48.732 78.6553 49.212C79.2313 49.692 79.9273 49.932 80.7433 49.932ZM113.13 35.208C115.002 35.208 116.466 35.772 117.522 36.9C118.578 38.028 119.106 39.612 119.106 41.652V53.568C119.106 53.688 119.058 53.796 118.962 53.892C118.89 53.964 118.794 54 118.674 54H114.462C114.342 54 114.234 53.964 114.138 53.892C114.066 53.796 114.03 53.688 114.03 53.568V42.768C114.03 41.784 113.778 41.004 113.274 40.428C112.77 39.852 112.098 39.564 111.258 39.564C110.418 39.564 109.734 39.852 109.206 40.428C108.678 41.004 108.414 41.772 108.414 42.732V53.568C108.414 53.688 108.366 53.796 108.27 53.892C108.198 53.964 108.102 54 107.982 54H103.806C103.686 54 103.578 53.964 103.482 53.892C103.41 53.796 103.374 53.688 103.374 53.568V42.768C103.374 41.808 103.11 41.04 102.582 40.464C102.054 39.864 101.37 39.564 100.53 39.564C99.7623 39.564 99.1143 39.792 98.5863 40.248C98.0823 40.704 97.7823 41.34 97.6863 42.156V53.568C97.6863 53.688 97.6383 53.796 97.5423 53.892C97.4703 53.964 97.3743 54 97.2543 54H93.0423C92.9223 54 92.8143 53.964 92.7183 53.892C92.6463 53.796 92.6103 53.688 92.6103 53.568V35.928C92.6103 35.808 92.6463 35.712 92.7183 35.64C92.8143 35.544 92.9223 35.496 93.0423 35.496H97.2543C97.3743 35.496 97.4703 35.544 97.5423 35.64C97.6383 35.712 97.6863 35.808 97.6863 35.928V37.332C97.6863 37.404 97.7103 37.452 97.7583 37.476C97.8063 37.5 97.8543 37.476 97.9023 37.404C98.8863 35.94 100.41 35.208 102.474 35.208C103.674 35.208 104.718 35.46 105.606 35.964C106.518 36.468 107.214 37.188 107.694 38.124C107.766 38.268 107.85 38.268 107.946 38.124C108.474 37.14 109.182 36.408 110.07 35.928C110.982 35.448 112.002 35.208 113.13 35.208ZM133.469 35.928C133.469 35.808 133.505 35.712 133.577 35.64C133.673 35.544 133.781 35.496 133.901 35.496H138.113C138.233 35.496 138.329 35.544 138.401 35.64C138.497 35.712 138.545 35.808 138.545 35.928V53.568C138.545 53.688 138.497 53.796 138.401 53.892C138.329 53.964 138.233 54 138.113 54H133.901C133.781 54 133.673 53.964 133.577 53.892C133.505 53.796 133.469 53.688 133.469 53.568V52.344C133.469 52.272 133.445 52.236 133.397 52.236C133.349 52.212 133.301 52.236 133.253 52.308C132.293 53.604 130.805 54.252 128.789 54.252C126.965 54.252 125.465 53.7 124.289 52.596C123.113 51.492 122.525 49.944 122.525 47.952V35.928C122.525 35.808 122.561 35.712 122.633 35.64C122.729 35.544 122.837 35.496 122.957 35.496H127.133C127.253 35.496 127.349 35.544 127.421 35.64C127.517 35.712 127.565 35.808 127.565 35.928V46.692C127.565 47.652 127.817 48.432 128.321 49.032C128.849 49.632 129.569 49.932 130.481 49.932C131.297 49.932 131.969 49.692 132.497 49.212C133.025 48.708 133.349 48.06 133.469 47.268V35.928ZM157.55 40.86C157.406 40.932 157.406 41.004 157.55 41.076C159.83 42.252 160.97 44.208 160.97 46.944C160.97 49.272 160.178 51.036 158.594 52.236C157.01 53.412 154.934 54 152.366 54H143.042C142.922 54 142.814 53.964 142.718 53.892C142.646 53.796 142.61 53.688 142.61 53.568V29.232C142.61 29.112 142.646 29.016 142.718 28.944C142.814 28.848 142.922 28.8 143.042 28.8H152.078C157.766 28.8 160.61 31.104 160.61 35.712C160.61 38.112 159.59 39.828 157.55 40.86ZM147.866 33.156C147.746 33.156 147.686 33.216 147.686 33.336V38.952C147.686 39.072 147.746 39.132 147.866 39.132H152.078C153.206 39.132 154.082 38.868 154.706 38.34C155.33 37.812 155.642 37.092 155.642 36.18C155.642 35.244 155.33 34.512 154.706 33.984C154.082 33.432 153.206 33.156 152.078 33.156H147.866ZM152.366 49.608C153.47 49.608 154.334 49.332 154.958 48.78C155.582 48.204 155.894 47.424 155.894 46.44C155.894 45.456 155.582 44.688 154.958 44.136C154.334 43.56 153.458 43.272 152.33 43.272H147.866C147.746 43.272 147.686 43.332 147.686 43.452V49.428C147.686 49.548 147.746 49.608 147.866 49.608H152.366ZM167.346 33.408C166.53 33.408 165.846 33.144 165.294 32.616C164.766 32.064 164.502 31.38 164.502 30.564C164.502 29.724 164.766 29.04 165.294 28.512C165.822 27.984 166.506 27.72 167.346 27.72C168.186 27.72 168.87 27.984 169.398 28.512C169.926 29.04 170.19 29.724 170.19 30.564C170.19 31.38 169.914 32.064 169.362 32.616C168.834 33.144 168.162 33.408 167.346 33.408ZM165.186 54C165.066 54 164.958 53.964 164.862 53.892C164.79 53.796 164.754 53.688 164.754 53.568V35.892C164.754 35.772 164.79 35.676 164.862 35.604C164.958 35.508 165.066 35.46 165.186 35.46H169.398C169.518 35.46 169.614 35.508 169.686 35.604C169.782 35.676 169.83 35.772 169.83 35.892V53.568C169.83 53.688 169.782 53.796 169.686 53.892C169.614 53.964 169.518 54 169.398 54H165.186ZM190.166 40.212C190.622 41.46 190.85 42.948 190.85 44.676C190.85 46.332 190.646 47.784 190.238 49.032C189.686 50.664 188.798 51.948 187.574 52.884C186.374 53.82 184.946 54.288 183.29 54.288C181.538 54.288 180.158 53.628 179.15 52.308C179.102 52.26 179.054 52.248 179.006 52.272C178.958 52.272 178.934 52.308 178.934 52.38V53.568C178.934 53.688 178.886 53.796 178.79 53.892C178.718 53.964 178.622 54 178.502 54H174.29C174.17 54 174.062 53.964 173.966 53.892C173.894 53.796 173.858 53.688 173.858 53.568V29.232C173.858 29.112 173.894 29.016 173.966 28.944C174.062 28.848 174.17 28.8 174.29 28.8H178.502C178.622 28.8 178.718 28.848 178.79 28.944C178.886 29.016 178.934 29.112 178.934 29.232V36.936C178.934 37.008 178.958 37.056 179.006 37.08C179.054 37.104 179.102 37.08 179.15 37.008C180.086 35.808 181.418 35.208 183.146 35.208C184.898 35.208 186.362 35.664 187.538 36.576C188.738 37.464 189.614 38.676 190.166 40.212ZM184.838 48.384C185.342 47.472 185.594 46.272 185.594 44.784C185.594 43.128 185.306 41.856 184.73 40.968C184.154 40.032 183.302 39.564 182.174 39.564C181.118 39.564 180.314 40.032 179.762 40.968C179.234 41.88 178.97 43.14 178.97 44.748C178.97 46.356 179.21 47.568 179.69 48.384C180.266 49.416 181.106 49.932 182.21 49.932C183.386 49.932 184.262 49.416 184.838 48.384ZM194.609 54C194.489 54 194.381 53.964 194.285 53.892C194.213 53.796 194.177 53.688 194.177 53.568V29.232C194.177 29.112 194.213 29.016 194.285 28.944C194.381 28.848 194.489 28.8 194.609 28.8H198.821C198.941 28.8 199.037 28.848 199.109 28.944C199.205 29.016 199.253 29.112 199.253 29.232V53.568C199.253 53.688 199.205 53.796 199.109 53.892C199.037 53.964 198.941 54 198.821 54H194.609ZM205.702 33.408C204.886 33.408 204.202 33.144 203.65 32.616C203.122 32.064 202.858 31.38 202.858 30.564C202.858 29.724 203.122 29.04 203.65 28.512C204.178 27.984 204.862 27.72 205.702 27.72C206.542 27.72 207.226 27.984 207.754 28.512C208.282 29.04 208.546 29.724 208.546 30.564C208.546 31.38 208.27 32.064 207.718 32.616C207.19 33.144 206.518 33.408 205.702 33.408ZM203.542 54C203.422 54 203.314 53.964 203.218 53.892C203.146 53.796 203.11 53.688 203.11 53.568V35.892C203.11 35.772 203.146 35.676 203.218 35.604C203.314 35.508 203.422 35.46 203.542 35.46H207.754C207.874 35.46 207.97 35.508 208.042 35.604C208.138 35.676 208.186 35.772 208.186 35.892V53.568C208.186 53.688 208.138 53.796 208.042 53.892C207.97 53.964 207.874 54 207.754 54H203.542Z" fill="white"/>
</svg>
