<svg height="512" viewBox="0 0 60 60" width="512" xmlns="http://www.w3.org/2000/svg"><g id="Page-1" fill="none" fill-rule="evenodd"><g id="045---Add-Book" fill-rule="nonzero"><path id="Shape" d="m43 59h-36c-3.31370843-.0000001-5.99999982-2.6862916-5.99999982-6s2.68629139-5.9999999 5.99999982-6h20.5c1.8284836 7.0647401 8.2024727 11.9994414 15.5 12z" fill="#fff"/><path id="Shape" d="m43 4v23c-4.9459904.0086505-9.6109613 2.3002856-12.6407396 6.2096768-3.0297782 3.9093913-4.084967 8.9986075-2.8592604 13.7903232h-20.5c-3.3137085 0-6 2.6862915-6 6v-46c0-3.3137085 2.6862915-6 6-6h33c1.6568542 0 3 1.34314575 3 3z" fill="#e8edfc"/><path id="Shape" d="m40 1h-3c1.6568542 0 3 1.34314575 3 3v23c-4.9459904.0086505-9.6109613 2.3002856-12.6407396 6.2096768-3.0297782 3.9093913-4.084967 8.9986075-2.8592604 13.7903232h3c-1.2257066-4.7917157-.1705178-9.8809319 2.8592604-13.7903232 3.0297783-3.9093912 7.6947492-6.2010263 12.6407396-6.2096768v-23c0-1.65685425-1.3431458-3-3-3z" fill="#cad9fc"/><rect id="Rectangle-path" fill="#fff" height="5" rx="1" width="26" x="12" y="6"/><path id="Shape" d="m59 43c0 8.836556-7.163444 16-16 16s-16-7.163444-16-16 7.163444-16 16-16 16 7.163444 16 16z" fill="#a4c2f7"/><path id="Shape" d="m43 27c-.506 0-1.006.03-1.5.076 8.2201017.7714199 14.5021921 7.6728351 14.4995998 15.9290542s-6.2890153 15.153688-14.5095998 15.9199458c.5.046 1 .075 1.51.075 8.836556 0 16-7.163444 16-16s-7.163444-16-16-16z" fill="#7facfa"/><path id="Shape" d="m51 40h-5v-5c0-1.1045695-.8954305-2-2-2h-2c-1.1045695 0-2 .8954305-2 2v5h-5c-1.1045695 0-2 .8954305-2 2v2c0 1.1045695.8954305 2 2 2h5v5c0 1.1045695.8954305 2 2 2h2c1.1045695 0 2-.8954305 2-2v-5h5c1.1045695 0 2-.8954305 2-2v-2c0-1.1045695-.8954305-2-2-2z" fill="#e8edfc"/><path id="Shape" d="m10 59c-3.3137085 0-6-2.6862915-6-6v-46c0-3.3137085 2.6862915-6 6-6h-3c-3.3137085 0-6 2.6862915-6 6v46c0 3.3137085 2.6862915 6 6 6z" fill="#fff"/><path id="Rectangle-path" d="m0 7h2v8h-2z" fill="#fff"/><g fill="#428dff"><path id="Shape" d="m1.02 12c-.55228474.0027614-1.00223854-.4427153-1.00499996-.995-.00276143-.5522847.44271523-1.0022386.99499996-1.005h.01c.55228475 0 1 .4477153 1 1s-.44771525 1-1 1z"/><path id="Shape" d="m13 12h24c1.1045695 0 2-.8954305 2-2v-3c0-1.1045695-.8954305-2-2-2h-24c-1.1045695 0-2 .8954305-2 2v3c0 1.1045695.8954305 2 2 2zm0-5h24v3h-24z"/><path id="Shape" d="m36 15h-22c-.5522847 0-1 .4477153-1 1s.4477153 1 1 1h22c.5522847 0 1-.4477153 1-1s-.4477153-1-1-1z"/><path id="Shape" d="m32 20h-14c-.5522847 0-1 .4477153-1 1s.4477153 1 1 1h14c.5522847 0 1-.4477153 1-1s-.4477153-1-1-1z"/><path id="Shape" d="m44 26.051v-22.051c0-2.209139-1.790861-4-4-4h-33c-3.86416566.00440864-6.99559136 3.13583434-7 7 0 .55228475.44771525 1 1 1s1-.44771525 1-1c.00299829-2.37510083 1.6735832-4.42156735 4-4.9v43.98c-1.52060655.2180524-2.92669715.9319949-4 2.031v-33.111c0-.5522847-.44771525-1-1-1s-1 .4477153-1 1v38c.00440864 3.8641657 3.13583434 6.9955914 7 7h36c9.1910107.0042199 16.7188222-7.3017611 16.9894348-16.4887881.2706126-9.1870269-6.8141111-16.923434-15.9894348-17.4602119zm-2-22.051v22.051c-4.8560465.2587639-9.3652902 2.596811-12.375016 6.4164572-3.0097257 3.8196462-4.2282162 8.7506729-3.343984 13.5325428h-18.281v-44h32c1.1045695 0 2 .8954305 2 2zm-35 54c-2.76142375 0-5-2.2385763-5-5s2.23857625-5 5-5h19.753c.2145584.6825369.4727571 1.3505802.773 2h-20.526c-.55228475 0-1 .4477153-1 1s.44771525 1 1 1h21.6c.4367247.7012303.9240176 1.3696705 1.458 2h-23.058c-.55228475 0-1 .4477153-1 1s.44771525 1 1 1h25.068c.9104617.7678183 1.8988559 1.4381433 2.949 2zm36 0c-8.2842712 0-15-6.7157288-15-15s6.7157288-15 15-15 15 6.7157288 15 15c-.0093685 8.2803876-6.7196124 14.9906315-15 15z"/><path id="Shape" d="m51 39h-4v-4c0-1.6568542-1.3431458-3-3-3h-2c-1.6568542 0-3 1.3431458-3 3v4h-4c-1.6568542 0-3 1.3431458-3 3v2c0 1.6568542 1.3431458 3 3 3h4v4c0 1.6568542 1.3431458 3 3 3h2c1.6568542 0 3-1.3431458 3-3v-4h4c1.6568542 0 3-1.3431458 3-3v-2c0-1.6568542-1.3431458-3-3-3zm1 5c0 .5522847-.4477153 1-1 1h-5c-.5522847 0-1 .4477153-1 1v5c0 .5522847-.4477153 1-1 1h-2c-.5522847 0-1-.4477153-1-1v-5c0-.5522847-.4477153-1-1-1h-5c-.5522847 0-1-.4477153-1-1v-2c0-.5522847.4477153-1 1-1h5c.5522847 0 1-.4477153 1-1v-5c0-.5522847.4477153-1 1-1h2c.5522847 0 1 .4477153 1 1v5c0 .5522847.4477153 1 1 1h5c.5522847 0 1 .4477153 1 1z"/></g></g></g></svg>